REM DIRINDEX 1\2,1\3\7,1\3\8,1\4\9,1\4\10,1\4\11,1\5\12,1\5\13,1\5\14,1\6\15,1\6\16,1\6\17
REM DIRNAME "folder01","folder02","folder03","folder04","folder05","folder06","folder07","folder08","folder09","folder10","folder11","folder12","folder13","folder14","folder15","folder16","folder17"
TITLE ""
FILE "2Q_t_0318-0334.mp3" MP3
  TRACK 01 AUDIO
    TITLE "0:"
    INDEX 01 00:00:00
  TRACK 02 AUDIO
    TITLE "7:cjc174_2381"
    INDEX 01 00:00:10
  TRACK 03 AUDIO
    TITLE "0:"
    INDEX 01 00:01:25
  TRACK 04 AUDIO
    TITLE "8:cjc174_2382"
    INDEX 01 00:01:70
  TRACK 05 AUDIO
    TITLE "0:"
    INDEX 01 00:04:53
  TRACK 06 AUDIO
    TITLE "7:cjc174_2383"
    INDEX 01 00:05:21
  TRACK 07 AUDIO
    TITLE "0:"
    INDEX 01 00:06:32
  TRACK 08 AUDIO
    TITLE "8:cjc174_2384"
    INDEX 01 00:07:08
  TRACK 09 AUDIO
    TITLE "0:"
    INDEX 01 00:10:03
  TRACK 10 AUDIO
    TITLE "7:cjc174_2385"
    INDEX 01 00:10:46
  TRACK 11 AUDIO
    TITLE "0:"
    INDEX 01 00:11:41
  TRACK 12 AUDIO
    TITLE "8:cjc174_2386"
    INDEX 01 00:12:12
  TRACK 13 AUDIO
    TITLE "0:"
    INDEX 01 00:14:73
  TRACK 14 AUDIO
    TITLE "7:cjc174_2387"
    INDEX 01 00:15:43
  TRACK 15 AUDIO
    TITLE "0:"
    INDEX 01 00:16:37
  TRACK 16 AUDIO
    TITLE "8:cjc174_2388"
    INDEX 01 00:17:09
  TRACK 17 AUDIO
    TITLE "0:"
    INDEX 01 00:19:68
  TRACK 18 AUDIO
    TITLE "7:cjc174_2389"
    INDEX 01 00:20:37
  TRACK 19 AUDIO
    TITLE "0:"
    INDEX 01 00:22:06
  TRACK 20 AUDIO
    TITLE "8:cjc174_2390"
    INDEX 01 00:22:51
  TRACK 21 AUDIO
    TITLE "0:"
    INDEX 01 00:25:20
  TRACK 22 AUDIO
    TITLE "7:cjc174_2391"
    INDEX 01 00:25:65
  TRACK 23 AUDIO
    TITLE "0:"
    INDEX 01 00:26:66
  TRACK 24 AUDIO
    TITLE "8:cjc174_2392"
    INDEX 01 00:27:42
  TRACK 25 AUDIO
    TITLE "0:"
    INDEX 01 00:30:29
  TRACK 26 AUDIO
    TITLE "7:cjc174_2393"
    INDEX 01 00:30:74
  TRACK 27 AUDIO
    TITLE "0:"
    INDEX 01 00:32:26
  TRACK 28 AUDIO
    TITLE "8:cjc174_2394"
    INDEX 01 00:32:73
  TRACK 29 AUDIO
    TITLE "0:"
    INDEX 01 00:34:33
  TRACK 30 AUDIO
    TITLE "7:cjc174_2395"
    INDEX 01 00:35:03
  TRACK 31 AUDIO
    TITLE "0:"
    INDEX 01 00:36:20
  TRACK 32 AUDIO
    TITLE "8:cjc174_2396"
    INDEX 01 00:36:67
  TRACK 33 AUDIO
    TITLE "0:"
    INDEX 01 00:39:69
  TRACK 34 AUDIO
    TITLE "7:cjc174_2397"
    INDEX 01 00:40:37
  TRACK 35 AUDIO
    TITLE "0:"
    INDEX 01 00:41:52
  TRACK 36 AUDIO
    TITLE "8:cjc174_2398"
    INDEX 01 00:42:34
  TRACK 37 AUDIO
    TITLE "0:"
    INDEX 01 00:43:47
  TRACK 38 AUDIO
    TITLE "7:cjc174_2399"
    INDEX 01 00:44:15
  TRACK 39 AUDIO
    TITLE "0:"
    INDEX 01 00:45:19
  TRACK 40 AUDIO
    TITLE "8:cjc174_2400"
    INDEX 01 00:45:66
  TRACK 41 AUDIO
    TITLE "0:"
    INDEX 01 00:48:60
  TRACK 42 AUDIO
    TITLE "7:cjc174_2401"
    INDEX 01 00:49:30
  TRACK 43 AUDIO
    TITLE "0:"
    INDEX 01 00:50:42
  TRACK 44 AUDIO
    TITLE "8:cjc174_2402"
    INDEX 01 00:51:16
  TRACK 45 AUDIO
    TITLE "0:"
    INDEX 01 00:53:50
  TRACK 46 AUDIO
    TITLE "7:cjc174_2403"
    INDEX 01 00:54:20
  TRACK 47 AUDIO
    TITLE "0:"
    INDEX 01 00:55:23
  TRACK 48 AUDIO
    TITLE "8:cjc174_2404"
    INDEX 01 00:55:70
  TRACK 49 AUDIO
    TITLE "0:"
    INDEX 01 00:57:47
  TRACK 50 AUDIO
    TITLE "7:cjc174_2405"
    INDEX 01 00:58:19
  TRACK 51 AUDIO
    TITLE "0:"
    INDEX 01 00:59:39
  TRACK 52 AUDIO
    TITLE "8:cjc174_2406"
    INDEX 01 01:00:12
  TRACK 53 AUDIO
    TITLE "0:"
    INDEX 01 01:02:68
  TRACK 54 AUDIO
    TITLE "7:cjc174_2407"
    INDEX 01 01:03:38
  TRACK 55 AUDIO
    TITLE "0:"
    INDEX 01 01:04:69
  TRACK 56 AUDIO
    TITLE "8:cjc174_2408"
    INDEX 01 01:05:39
  TRACK 57 AUDIO
    TITLE "0:"
    INDEX 01 01:08:75
  TRACK 58 AUDIO
    TITLE "7:cjc174_2409"
    INDEX 01 01:09:45
  TRACK 59 AUDIO
    TITLE "0:"
    INDEX 01 01:10:42
  TRACK 60 AUDIO
    TITLE "8:cjc174_2410"
    INDEX 01 01:11:16
  TRACK 61 AUDIO
    TITLE "0:"
    INDEX 01 01:13:66
  TRACK 62 AUDIO
    TITLE "7:cjc174_2411"
    INDEX 01 01:14:34
  TRACK 63 AUDIO
    TITLE "0:"
    INDEX 01 01:15:41
  TRACK 64 AUDIO
    TITLE "8:cjc174_2412"
    INDEX 01 01:16:12
  TRACK 65 AUDIO
    TITLE "0:"
    INDEX 01 01:19:16
  TRACK 66 AUDIO
    TITLE "2:cjc174_2413"
    INDEX 01 01:19:59
  TRACK 67 AUDIO
    TITLE "0:"
    INDEX 01 01:20:66
  TRACK 68 AUDIO
    TITLE "7:cjc174_2414"
    INDEX 01 01:21:34
  TRACK 69 AUDIO
    TITLE "0:"
    INDEX 01 01:22:42
  TRACK 70 AUDIO
    TITLE "8:cjc174_2415"
    INDEX 01 01:23:12
  TRACK 71 AUDIO
    TITLE "0:"
    INDEX 01 01:25:32
